<svg width="19" height="19" viewBox="0 0 19 19" fill="none" xmlns="http://www.w3.org/2000/svg">
<path opacity="0.2" d="M6.77594 1.8368C7.73804 -0.612268 11.1918 -0.612268 12.1539 1.8368L13.0921 4.22471C13.3863 4.97244 13.9758 5.56435 14.7209 5.8592L17.0995 6.80097C19.5397 7.76695 19.5397 11.2333 17.0995 12.1989L14.7209 13.1407C13.9758 13.4355 13.3863 14.0275 13.0921 14.7749L12.1539 17.1631C11.1918 19.6123 7.73804 19.6123 6.77594 17.1631L5.83777 14.7749C5.54358 14.0275 4.954 13.4355 4.20896 13.1407L1.82972 12.1989C-0.609906 11.2333 -0.609906 7.76695 1.82972 6.80097L4.20896 5.8592C4.954 5.56435 5.54358 4.97244 5.83777 4.22471L6.77594 1.8368Z" fill="#0084FF"/>
</svg>
