<svg width="7" height="14" viewBox="0 0 7 14" fill="none" xmlns="http://www.w3.org/2000/svg">
  <path d="M0.244566 13.1926C0.596579 13.5738 1.19898 13.6047 1.59011 13.2616L3.79734 11.3256C4.73282 10.5051 5.50874 9.8245 6.04153 9.20731C6.60175 8.55818 7 7.86088 7 7.00004C7 6.13919 6.60175 5.44177 6.04153 4.79276C5.50874 4.17545 4.73282 3.49487 3.79734 2.67438L1.59011 0.738372C1.19898 0.395296 0.596579 0.426247 0.244566 0.807332C-0.107446 1.18854 -0.0756855 1.77565 0.315453 2.11872L2.47046 4.00917C3.47137 4.88698 4.14617 5.48176 4.5833 5.98827C5.00289 6.47434 5.09448 6.75799 5.09448 7.00004C5.09448 7.24196 5.00289 7.52573 4.5833 8.01181C4.14617 8.51819 3.47137 9.11297 2.47046 9.99087L0.315453 11.8812C-0.0756855 12.2243 -0.107446 12.8114 0.244566 13.1926Z" fill="var(--icon-color, #000000)"/>
</svg>
