<svg width="24" height="24" viewBox="0 0 24 24" fill="none" xmlns="http://www.w3.org/2000/svg">
  <path d="M4.5 3.5L19.5 20.5" stroke="#999999" stroke-width="2" stroke-linecap="round" stroke-linejoin="round"/>
  <path d="M14.5225 14.7751C13.8251 15.4054 12.9189 15.7536 12 15.7536C11.0811 15.7536 10.1749 15.4054 9.47746 14.7751C8.78 14.1447 8.39976 13.3005 8.39976 12.4393C8.39976 11.5781 8.78 10.7339 9.47746 10.1036" stroke="#999999" stroke-width="2" stroke-linecap="round" stroke-linejoin="round"/>
  <path d="M6.93433 6.43286C3.89261 8.36713 2 12 2 12C2 12 6 19 12 19C14.0503 19 15.8174 18.2734 17.2444 17.2444" stroke="#999999" stroke-width="2" stroke-linecap="round" stroke-linejoin="round"/>
  <path d="M19.5 15.5C21.0986 13.989 22 12 22 12C22 12 18 5 12 5C11.3358 5 10.6927 5.0929 10.0734 5.24257" stroke="#999999" stroke-width="2" stroke-linecap="round" stroke-linejoin="round"/>
</svg> 