<svg width="18" height="16" viewBox="0 0 18 16" fill="none" xmlns="http://www.w3.org/2000/svg">
<path fill-rule="evenodd" clip-rule="evenodd" d="M3.68696 1.68675C2.30447 2.31869 1.29166 3.82178 1.29166 5.61418C1.29166 7.44533 2.04101 8.85675 3.11524 10.0664C4.0006 11.0633 5.07236 11.8896 6.1176 12.6954C6.36586 12.8868 6.61262 13.0771 6.85504 13.2682C7.2934 13.6138 7.68441 13.917 8.06133 14.1373C8.43841 14.3577 8.742 14.4583 9 14.4583C9.258 14.4583 9.56158 14.3577 9.93866 14.1373C10.3156 13.917 10.7066 13.6138 11.145 13.2682C11.3874 13.0771 11.6342 12.8868 11.8824 12.6954C12.9277 11.8896 13.9994 11.0633 14.8847 10.0664C15.959 8.85675 16.7083 7.44533 16.7083 5.61418C16.7083 3.82178 15.6955 2.31869 14.313 1.68675C12.9699 1.07283 11.1652 1.23541 9.45033 3.01721C9.3325 3.13962 9.16991 3.20878 9 3.20878C8.83008 3.20878 8.6675 3.13962 8.54966 3.01721C6.83471 1.23541 5.03006 1.07283 3.68696 1.68675ZM9 1.71561C7.07329 -0.00820698 4.9158 -0.249349 3.1673 0.549893C1.32059 1.39403 0.0416641 3.35412 0.0416641 5.61418C0.0416641 7.83542 0.967081 9.53 2.1806 10.8964C3.15239 11.9907 4.34185 12.9066 5.39235 13.7154C5.63049 13.8988 5.86148 14.0767 6.08118 14.2498C6.50804 14.5863 6.96628 14.9452 7.43066 15.2165C7.89491 15.4878 8.42466 15.7083 9 15.7083C9.57533 15.7083 10.1051 15.4878 10.5693 15.2165C11.0337 14.9452 11.4919 14.5863 11.9188 14.2498C12.1385 14.0767 12.3695 13.8988 12.6077 13.7154C13.6582 12.9066 14.8476 11.9907 15.8194 10.8964C17.0329 9.53 17.9583 7.83542 17.9583 5.61418C17.9583 3.35412 16.6794 1.39403 14.8327 0.549893C13.0842 -0.249349 10.9267 -0.00820698 9 1.71561Z" fill="black"/>
</svg>
