<svg width="21" height="20" viewBox="0 0 21 20" fill="none" xmlns="http://www.w3.org/2000/svg">
  <path d="M2.16666 10.1699C2.16666 8.26287 2.16666 7.30936 2.59932 6.51891C3.03199 5.72847 3.82245 5.23788 5.40335 4.25673L7.07001 3.22235C8.74115 2.1852 9.57674 1.66663 10.5 1.66663C11.4232 1.66663 12.2588 2.1852 13.93 3.22235L15.5967 4.25673C17.1776 5.23788 17.968 5.72847 18.4007 6.51891C18.8333 7.30936 18.8333 8.26287 18.8333 10.1699V11.4375C18.8333 14.6881 18.8333 16.3135 17.857 17.3234C16.8807 18.3333 15.3093 18.3333 12.1667 18.3333H8.83332C5.69062 18.3333 4.11928 18.3333 3.14296 17.3234C2.16666 16.3135 2.16666 14.6881 2.16666 11.4375V10.1699Z" stroke="var(--icon-color, #000000)" stroke-width="1.5"/>
  <path d="M10.5 12.5V15" stroke="var(--icon-color, #000000)" stroke-width="1.5" stroke-linecap="round"/>
</svg>