<svg width="20" height="20" viewBox="0 0 20 20" fill="none" xmlns="http://www.w3.org/2000/svg">
<path d="M3.33334 8.45271C3.33334 4.70486 6.31811 1.66663 10 1.66663C13.6819 1.66663 16.6667 4.70486 16.6667 8.45271C16.6667 12.1712 14.5389 16.5103 11.2191 18.062C10.4453 18.4237 9.55476 18.4237 8.78093 18.062C5.46111 16.5103 3.33334 12.1712 3.33334 8.45271Z" stroke="black" stroke-width="1.5"/>
<path d="M10 10.8334C11.3807 10.8334 12.5 9.71409 12.5 8.33337C12.5 6.95266 11.3807 5.83337 10 5.83337C8.61929 5.83337 7.5 6.95266 7.5 8.33337C7.5 9.71409 8.61929 10.8334 10 10.8334Z" stroke="black" stroke-width="1.5"/>
</svg>
