<svg width="20" height="21" viewBox="0 0 20 21" fill="none" xmlns="http://www.w3.org/2000/svg">
<path d="M11.25 13.4167C11.25 11.8454 11.25 11.0597 11.7382 10.5715C12.2263 10.0834 13.012 10.0834 14.5833 10.0834C16.1547 10.0834 16.9403 10.0834 17.4285 10.5715C17.9167 11.0597 17.9167 11.8454 17.9167 13.4167V15.0834C17.9167 16.6547 17.9167 17.4404 17.4285 17.9285C16.9403 18.4167 16.1547 18.4167 14.5833 18.4167C13.012 18.4167 12.2263 18.4167 11.7382 17.9285C11.25 17.4404 11.25 16.6547 11.25 15.0834V13.4167Z" stroke="white" stroke-width="1.5"/>
<path d="M1.66667 7.58337C1.66667 9.15471 1.66667 9.94037 2.15483 10.4285C2.64298 10.9167 3.42865 10.9167 5 10.9167C6.57135 10.9167 7.35703 10.9167 7.84518 10.4285C8.33334 9.94037 8.33334 9.15471 8.33334 7.58337V5.91671C8.33334 4.34536 8.33334 3.55968 7.84518 3.07153C7.35703 2.58337 6.57135 2.58337 5 2.58337C3.42865 2.58337 2.64298 2.58337 2.15483 3.07153C1.66667 3.55968 1.66667 4.34536 1.66667 5.91671V7.58337Z" stroke="white" stroke-width="1.5"/>
<path d="M11.25 5.08337C11.25 4.30681 11.25 3.91852 11.3768 3.61223C11.546 3.20386 11.8705 2.8794 12.2788 2.71024C12.5852 2.58337 12.9734 2.58337 13.75 2.58337H15.4167C16.1932 2.58337 16.5815 2.58337 16.8878 2.71024C17.2962 2.8794 17.6207 3.20386 17.7898 3.61223C17.9167 3.91852 17.9167 4.30681 17.9167 5.08337C17.9167 5.85994 17.9167 6.24822 17.7898 6.55452C17.6207 6.96289 17.2962 7.28735 16.8878 7.45651C16.5815 7.58337 16.1932 7.58337 15.4167 7.58337H13.75C12.9734 7.58337 12.5852 7.58337 12.2788 7.45651C11.8705 7.28735 11.546 6.96289 11.3768 6.55452C11.25 6.24822 11.25 5.85994 11.25 5.08337Z" stroke="white" stroke-width="1.5"/>
<path d="M1.66667 15.9166C1.66667 16.6932 1.66667 17.0815 1.79354 17.3878C1.9627 17.7961 2.28716 18.1206 2.69553 18.2898C3.00182 18.4166 3.3901 18.4166 4.16667 18.4166H5.83334C6.6099 18.4166 6.99819 18.4166 7.30448 18.2898C7.71285 18.1206 8.03731 17.7961 8.20647 17.3878C8.33334 17.0815 8.33334 16.6932 8.33334 15.9166C8.33334 15.14 8.33334 14.7518 8.20647 14.4455C8.03731 14.0371 7.71285 13.7126 7.30448 13.5435C6.99819 13.4166 6.6099 13.4166 5.83334 13.4166H4.16667C3.3901 13.4166 3.00182 13.4166 2.69553 13.5435C2.28716 13.7126 1.9627 14.0371 1.79354 14.4455C1.66667 14.7518 1.66667 15.14 1.66667 15.9166Z" stroke="white" stroke-width="1.5"/>
</svg>
