<svg width="20" height="20" viewBox="0 0 20 20" fill="none" xmlns="http://www.w3.org/2000/svg">
<path d="M11.6708 3.33337H8.32919C5.17866 3.33337 3.6034 3.33337 2.62465 4.30968C1.95076 4.9819 1.74086 5.9362 1.67549 7.49127C1.66252 7.79966 1.65604 7.95386 1.71362 8.05672C1.77121 8.1596 2.00111 8.28799 2.4609 8.54479C2.97155 8.82996 3.31673 9.37479 3.31673 10C3.31673 10.6253 2.97155 11.1701 2.4609 11.4553C2.00111 11.7121 1.77121 11.8405 1.71362 11.9434C1.65604 12.0462 1.66252 12.2005 1.67549 12.5088C1.74086 14.0639 1.95076 15.0182 2.62465 15.6904C3.6034 16.6667 5.17866 16.6667 8.32919 16.6667H11.6708C14.8213 16.6667 16.3966 16.6667 17.3753 15.6904C18.0493 15.0182 18.2592 14.0639 18.3245 12.5088C18.3375 12.2005 18.344 12.0462 18.2864 11.9434C18.2288 11.8405 17.9989 11.7121 17.5391 11.4553C17.0284 11.1701 16.6833 10.6253 16.6833 10C16.6833 9.37479 17.0284 8.82996 17.5391 8.54479C17.9989 8.28799 18.2288 8.1596 18.2864 8.05673C18.344 7.95386 18.3375 7.79966 18.3245 7.49127C18.2592 5.9362 18.0493 4.9819 17.3753 4.30968C16.3966 3.33337 14.8213 3.33337 11.6708 3.33337Z" stroke="white" stroke-width="1.5"/>
<path d="M7.5 12.5L12.5 7.5" stroke="white" stroke-width="1.5" stroke-linecap="round"/>
<path d="M12.9167 12.0833C12.9167 12.5436 12.5436 12.9167 12.0833 12.9167C11.6231 12.9167 11.25 12.5436 11.25 12.0833C11.25 11.6231 11.6231 11.25 12.0833 11.25C12.5436 11.25 12.9167 11.6231 12.9167 12.0833Z" fill="white"/>
<path d="M8.75 7.91671C8.75 8.37696 8.37692 8.75004 7.91667 8.75004C7.45644 8.75004 7.08334 8.37696 7.08334 7.91671C7.08334 7.45647 7.45644 7.08337 7.91667 7.08337C8.37692 7.08337 8.75 7.45647 8.75 7.91671Z" fill="white"/>
</svg>
