<svg width="24" height="24" viewBox="0 0 24 24" fill="none" xmlns="http://www.w3.org/2000/svg">
<g clip-path="url(#clip0_100_9609)">
<mask id="mask0_100_9609" style="mask-type:luminance" maskUnits="userSpaceOnUse" x="0" y="0" width="24" height="24">
<path d="M23.8815 0H0.119141V24H23.8815V0Z" fill="white"/>
</mask>
<g mask="url(#mask0_100_9609)">
<path fill-rule="evenodd" clip-rule="evenodd" d="M1.7895 1.68707C0.119141 3.37414 0.119141 6.08942 0.119141 11.52V12.48C0.119141 17.9106 0.119141 20.6259 1.7895 22.3129C3.45987 24 6.14827 24 11.5251 24H12.4756C17.8524 24 20.5408 24 22.2112 22.3129C23.8815 20.6259 23.8815 17.9106 23.8815 12.48V11.52C23.8815 6.08942 23.8815 3.37414 22.2112 1.68707C20.5408 0 17.8524 0 12.4756 0H11.5251C6.14827 0 3.45987 0 1.7895 1.68707ZM4.12909 7.30006C4.25779 13.5401 7.34687 17.29 12.7627 17.29H13.0697V13.72C15.0598 13.92 16.5647 15.39 17.1686 17.29H19.9806C19.2083 14.45 17.1785 12.88 15.9112 12.28C17.1785 11.54 18.9607 9.74004 19.3864 7.30006H16.8319C16.2774 9.28006 14.6341 11.08 13.0697 11.25V7.30006H10.5152V14.22C8.93101 13.82 6.93105 11.88 6.84194 7.30006H4.12909Z" fill="#0084FF"/>
</g>
</g>
<defs>
<clipPath id="clip0_100_9609">
<rect width="24" height="24" fill="white"/>
</clipPath>
</defs>
</svg>
